<svg width="240" height="360" viewBox="0 0 240 360" xmlns="http://www.w3.org/2000/svg">
    <rect width="100%" height="100%" fill="#050208" />
    
    <!-- Cosmic Frame -->
    <rect x="10" y="10" width="220" height="340" rx="15" fill="none" stroke="#9D814C" stroke-opacity="0.3" stroke-width="1" />
    <path d="M10 25 V10 H25 M215 10 H230 V25 M10 335 V350 H25 M215 350 H230 V335" fill="none" stroke="#9D814C" stroke-opacity="0.6" stroke-width="1.5" />
    
    <!-- Glow Backdrop -->
    <defs>
        <radialGradient id="glow-38" cx="50%" cy="50%" r="50%">
            <stop offset="0%" stop-color="#38BDF8" stop-opacity="0.15" />
            <stop offset="100%" stop-color="#38BDF8" stop-opacity="0" />
        </radialGradient>
    </defs>
    <circle cx="120" cy="180" r="96" fill="url(#glow-38)" />
    <g transform="translate(120, 180)">
        <g transform="translate(0, -30) scale(1)"><g fill="none" stroke="#38BDF8" stroke-width="2"><path d="M-12 -10 A 12 12 0 0 0 12 -10 H -12 Z" /> <line x1="0" y1="2" x2="0" y2="15" /> <line x1="-8" y1="15" x2="8" y2="15" /></g>
        </g>
        <g transform="translate(0, 30) scale(1)"><g fill="none" stroke="#38BDF8" stroke-width="2"><path d="M-12 -10 A 12 12 0 0 0 12 -10 H -12 Z" /> <line x1="0" y1="2" x2="0" y2="15" /> <line x1="-8" y1="15" x2="8" y2="15" /></g>
        </g>
    </g>
</svg>