<svg width="240" height="360" viewBox="0 0 240 360" xmlns="http://www.w3.org/2000/svg">
    <rect width="100%" height="100%" fill="#050208" />
    
    <!-- Cosmic Frame -->
    <rect x="10" y="10" width="220" height="340" rx="15" fill="none" stroke="#9D814C" stroke-opacity="0.3" stroke-width="1" />
    <path d="M10 25 V10 H25 M215 10 H230 V25 M10 335 V350 H25 M215 350 H230 V335" fill="none" stroke="#9D814C" stroke-opacity="0.6" stroke-width="1.5" />
    
    <!-- Glow Backdrop -->
    <defs>
        <radialGradient id="glow-71" cx="50%" cy="50%" r="50%">
            <stop offset="0%" stop-color="#4ADE80" stop-opacity="0.15" />
            <stop offset="100%" stop-color="#4ADE80" stop-opacity="0" />
        </radialGradient>
    </defs>
    <circle cx="120" cy="180" r="96" fill="url(#glow-71)" />
    <g transform="translate(120, 180)">
        <g transform="translate(-40, -40) scale(0.7)"><g fill="none" stroke="#4ADE80" stroke-width="2"><circle cx="0" cy="0" r="15" /> <path d="M0 -8 L2 0 L10 0 L3 5 L5 12 L0 7 L-5 12 L-3 5 L-10 0 L-2 0 Z" stroke-width="1" /></g>
        </g>
        <g transform="translate(0, -40) scale(0.7)"><g fill="none" stroke="#4ADE80" stroke-width="2"><circle cx="0" cy="0" r="15" /> <path d="M0 -8 L2 0 L10 0 L3 5 L5 12 L0 7 L-5 12 L-3 5 L-10 0 L-2 0 Z" stroke-width="1" /></g>
        </g>
        <g transform="translate(40, -40) scale(0.7)"><g fill="none" stroke="#4ADE80" stroke-width="2"><circle cx="0" cy="0" r="15" /> <path d="M0 -8 L2 0 L10 0 L3 5 L5 12 L0 7 L-5 12 L-3 5 L-10 0 L-2 0 Z" stroke-width="1" /></g>
        </g>
        <g transform="translate(-40, 0) scale(0.7)"><g fill="none" stroke="#4ADE80" stroke-width="2"><circle cx="0" cy="0" r="15" /> <path d="M0 -8 L2 0 L10 0 L3 5 L5 12 L0 7 L-5 12 L-3 5 L-10 0 L-2 0 Z" stroke-width="1" /></g>
        </g>
        <g transform="translate(0, 0) scale(0.7)"><g fill="none" stroke="#4ADE80" stroke-width="2"><circle cx="0" cy="0" r="15" /> <path d="M0 -8 L2 0 L10 0 L3 5 L5 12 L0 7 L-5 12 L-3 5 L-10 0 L-2 0 Z" stroke-width="1" /></g>
        </g>
        <g transform="translate(40, 0) scale(0.7)"><g fill="none" stroke="#4ADE80" stroke-width="2"><circle cx="0" cy="0" r="15" /> <path d="M0 -8 L2 0 L10 0 L3 5 L5 12 L0 7 L-5 12 L-3 5 L-10 0 L-2 0 Z" stroke-width="1" /></g>
        </g>
        <g transform="translate(-40, 40) scale(0.7)"><g fill="none" stroke="#4ADE80" stroke-width="2"><circle cx="0" cy="0" r="15" /> <path d="M0 -8 L2 0 L10 0 L3 5 L5 12 L0 7 L-5 12 L-3 5 L-10 0 L-2 0 Z" stroke-width="1" /></g>
        </g>
    </g>
</svg>