<svg width="240" height="360" viewBox="0 0 240 360" xmlns="http://www.w3.org/2000/svg">
    <rect width="100%" height="100%" fill="#050208" />
    
    <!-- Cosmic Frame -->
    <rect x="10" y="10" width="220" height="340" rx="15" fill="none" stroke="#9D814C" stroke-opacity="0.3" stroke-width="1" />
    <path d="M10 25 V10 H25 M215 10 H230 V25 M10 335 V350 H25 M215 350 H230 V335" fill="none" stroke="#9D814C" stroke-opacity="0.6" stroke-width="1.5" />
    
    <!-- Glow Backdrop -->
    <defs>
        <radialGradient id="glow-61" cx="50%" cy="50%" r="50%">
            <stop offset="0%" stop-color="#94A3B8" stop-opacity="0.15" />
            <stop offset="100%" stop-color="#94A3B8" stop-opacity="0" />
        </radialGradient>
    </defs>
    <circle cx="120" cy="180" r="96" fill="url(#glow-61)" />
    <g transform="translate(120, 180)">
        <g transform="scale(1.2)"><circle cx="0" cy="0" r="60" stroke="#9D814C" stroke-opacity="0.1" fill="none" /><g transform="translate(0, 10)"><g fill="none" stroke="#94A3B8" stroke-width="2"><line x1="0" y1="-25" x2="0" y2="10" /> <line x1="-12" y1="2" x2="12" y2="2" /> <line x1="0" y1="10" x2="0" y2="20" /></g></g><path d="M-15 -40 L15 -40 L15 -10 L-15 -10 Z M-15 -35 H15 M-15 -30 H15" stroke="#9D814C" stroke-width="1.5" /> <!-- Scroll -->
        </g>
    </g>
</svg>